<svg xmlns="http://www.w3.org/2000/svg" version="1.1" xmlns:xlink="http://www.w3.org/1999/xlink" xmlns:svgjs="http://svgjs.dev/svgjs" width="2000" height="621" viewBox="0 0 2000 621"><g transform="matrix(1,0,0,1,-1.2112696095522324,0.1552741775458344)"><svg viewBox="0 0 396 123" data-background-color="#ffffff" preserveAspectRatio="xMidYMid meet" height="621" width="2000" xmlns="http://www.w3.org/2000/svg" xmlns:xlink="http://www.w3.org/1999/xlink"><g id="tight-bounds" transform="matrix(1,0,0,1,0.24008861730862918,-0.03075478878926674)"><svg viewBox="0 0 395.52 123.06150957757853" height="123.06150957757853" width="395.52"><g><svg viewBox="0 0 395.52 123.06150957757853" height="123.06150957757853" width="395.52"><g><svg viewBox="0 0 395.52 123.06150957757853" height="123.06150957757853" width="395.52"><g id="textblocktransform"><svg viewBox="0 0 395.52 123.06150957757853" height="123.06150957757853" width="395.52" id="textblock"><g><svg viewBox="0 0 395.52 123.06150957757853" height="123.06150957757853" width="395.52"><path d="M394.594 26.394C392.735 13.621 387.435 10.069 387.435 10.069 371.165-3.087 350.86-0.252 332.619 1.639 300.414 1.715 268.339 4.526 236.208 6.033 168.767 6.263 100.749 2.482 33.643 11.807 27.339 14.668-6.54 12.369 1.121 28.029 3.129 34.544 10.456 41.774 10.232 47.752 11.236 48.799 12.631 46.398 13.226 47.905 15.309 51.967 18.711 50.051 21.501 52.453 17.614 58.865 20.403 64.205 23.062 69.8 18.377 71.256 12.371 70.566 9.675 75.394 9.396 78.894 7.89 78.23 6.235 78.077 5.026 77.975 2.59 78.358 2.999 79.456 4.394 83.212-1.594 85.383 2.162 89.062-0.422 93.048 3.948 96.497 3.353 100.814 3.278 101.683 3.687 102.424 4.338 102.628 7.22 103.727 3.018 105.873 3.464 108.197 33.029 124.088 65.104 113.102 95.394 120.409 103.259 115.3 97.346 122.223 100.489 121.15 102.943 119.898 104.728 125.084 107.499 122.146 107.927 121.303 107.276 119.311 108.8 119.694 109.6 119.898 110.307 119.847 110.418 118.672 110.586 116.909 109.117 118.008 108.726 117.088 112.947 112.438 111.906 123.5 115.866 123.04 115.68 121.686 114.528 119.745 116.889 120 119.232 118.059 119.306 116.449 121.389 120.818 121.463 121.763 121.835 122.427 122.43 122.887 128.938 118.135 135.409 124.573 142.233 122.427 146.417 120.077 150.433 123.705 154.672 122.811 156.16 122.095 157.666 120.818 159.098 122.964 176.632 123.424 195.319 121.508 211.943 123.04 256.364 120.179 303.836 124.216 350.674 120.435 361.719 118.978 373.192 116.909 383.958 115.248 383.958 115.248 392.679 110.701 392.679 90.263S394.538 72.38 394.817 56.106C395.096 39.832 396.398 39.168 394.538 26.394Z" opacity="1" fill="#d2fdff" data-fill-palette-color="tertiary"></path><g transform="matrix(1,0,0,1,55.76832,26.230666666666668)"><svg width="283.98335999999995" viewBox="0.2 -34.55 206.32000000000002 51.300000000000004" height="70.6001762442452" data-palette-color="#303c6c"><path d="M3.1 0.2L3.1 0.2Q0.2 0.2 0.2-2.75L0.2-2.75Q0.2-4.95 1.1-7.48 2-10 3.45-12.33 4.9-14.65 6.5-16.1L6.5-16.1Q8.4-17.75 10.95-17.75L10.95-17.75Q11.55-17.75 12.43-17.6 13.3-17.45 13.95-17.03 14.6-16.6 14.6-15.8L14.6-15.8Q14.6-14.65 13.75-13.18 12.9-11.7 12.2-10.8L12.2-10.8Q12.45-10.75 12.83-10.65 13.2-10.55 13.2-10.25L13.2-10.25Q13.2-10.1 12.95-10.1L12.95-10.1Q12.5-10.1 12.05-10.2 11.6-10.3 11.15-10.3L11.15-10.3Q9.45-10.3 7.68-9.8 5.9-9.3 4.3-8.75L4.3-8.75Q3.8-7.55 3.43-6.1 3.05-4.65 3.05-3.35L3.05-3.35Q3.05-2.4 3.43-1.65 3.8-0.9 4.9-0.9L4.9-0.9Q6.25-0.9 7.68-1.68 9.1-2.45 10.43-3.68 11.75-4.9 12.8-6.25 13.85-7.6 14.45-8.7L14.45-8.7Q14.5-8.65 14.5-8.5L14.5-8.5Q14.5-8.05 13.95-7.28 13.4-6.5 12.83-5.75 12.25-5 12.15-4.65L12.15-4.65Q12.1-4.3 11.98-4.05 11.85-3.8 11.7-3.5L11.7-3.5Q10.85-2.65 9.28-1.78 7.7-0.9 6.03-0.35 4.35 0.2 3.1 0.2ZM5-10.35L5-10.35Q6.3-10.6 7.58-10.75 8.85-10.9 10.15-10.9L10.15-10.9Q10.55-10.9 10.95-10.9 11.35-10.9 11.75-10.85L11.75-10.85Q12.15-11.7 12.43-12.7 12.7-13.7 12.7-14.65L12.7-14.65Q12.7-15.4 12.4-16.18 12.1-16.95 11.1-16.95L11.1-16.95Q10.15-16.95 9.18-16.15 8.2-15.35 7.6-14.7L7.6-14.7Q6.8-13.75 6.18-12.63 5.55-11.5 5-10.35ZM11.25 1.05L11.25 1.05Q11.15 1.05 11.15 1L11.15 1Q11.15 0.8 11.5 0.45 11.85 0.1 11.95 0L11.95 0Q13.85-1.85 15.7-3.78 17.55-5.7 19.4-7.55L19.4-7.55Q19.3-7.9 19-9 18.7-10.1 18.37-11.38 18.05-12.65 17.8-13.68 17.55-14.7 17.55-14.9L17.55-14.9Q17.55-16.05 18.62-16.63 19.7-17.2 20.65-17.2L20.65-17.2Q20.75-17.2 20.97-17.07 21.2-16.95 21.25-16.9L21.25-16.9 21.35-16.75 21.35-16.7Q21.35-16.6 21.25-16.63 21.15-16.65 21.05-16.65L21.05-16.65Q20.4-16.65 20.25-15.83 20.1-15 20.1-14.55L20.1-14.55Q20.1-13.2 20.37-11.85 20.65-10.5 21-9.2L21-9.2Q21.25-9.45 22.05-10.25 22.85-11.05 23.92-12.13 25-13.2 26.05-14.23 27.1-15.25 27.85-15.95 28.6-16.65 28.8-16.7L28.8-16.7Q29.25-16.85 29.95-17 30.65-17.15 31.1-17.15L31.1-17.15Q31.3-17.15 31.47-17.13 31.65-17.1 31.65-16.85L31.65-16.85Q31.65-16.5 31.22-16.15 30.8-15.8 30.27-15.55 29.75-15.3 29.45-15.15L29.45-15.15Q28.15-14.45 26.65-13.23 25.15-12 23.75-10.65 22.35-9.3 21.3-8.2L21.3-8.2Q21.45-7.75 21.85-6.68 22.25-5.6 22.8-4.42 23.35-3.25 23.97-2.4 24.6-1.55 25.25-1.55L25.25-1.55Q25.55-1.55 25.8-1.8L25.8-1.8Q26.65-2.5 26.9-3.95 27.15-5.4 27.15-6.4L27.15-6.4Q27.15-7.5 27-8.45L27-8.45Q27.3-8.3 27.4-7.63 27.5-6.95 27.5-6.25L27.5-6.25Q27.5-5.75 27.47-5.28 27.45-4.8 27.45-4.6L27.45-4.6 27.45-4.4Q27.7-4.05 27.72-3.85 27.75-3.65 27.8-3.3L27.8-3.3Q27.55-2.55 27.1-1.7 26.65-0.85 26-0.25 25.35 0.35 24.45 0.35L24.45 0.35Q23.35 0.35 22.7-0.3 22.05-0.95 21.55-1.85L21.55-1.85Q20.9-3.05 20.42-4.4 19.95-5.75 19.7-6.55L19.7-6.55Q19.2-6.05 18.67-5.5 18.15-4.95 17.65-4.4L17.65-4.4Q16.95-3.6 16.27-2.8 15.6-2 14.9-1.2L14.9-1.2Q14.65-0.95 13.9-0.4 13.15 0.15 12.37 0.6 11.6 1.05 11.25 1.05ZM14.14 16.75L14.14 16.75Q13.84 16.75 13.02 16.5 12.2 16.25 11.47 15.85 10.74 15.45 10.74 15.05L10.74 15.05Q10.74 14.9 10.95 14.9L10.95 14.9Q11.14 15 11.34 15L11.34 15Q11.54 15 11.59 14.95L11.59 14.95Q11.54 14.8 11.47 14.65 11.39 14.5 11.39 14.3L11.39 14.3Q11.39 14.05 11.59 14L11.59 14Q11.45 13.7 11.32 13.43 11.2 13.15 10.99 12.85L10.99 12.85Q10.89 12.65 10.54 12.23 10.19 11.8 10.19 11.6L10.19 11.6Q10.19 11.4 10.29 11.2L10.29 11.2Q11.34 12.6 12.09 13.45 12.84 14.3 13.92 14.68 14.99 15.05 16.89 15.05L16.89 15.05Q18.79 15.05 20.39 13.88 21.99 12.7 23.37 10.8 24.74 8.9 25.82 6.7 26.89 4.5 27.7 2.45 28.5 0.4 29-1L29-1Q30-3.9 30.84-6.85 31.7-9.8 32.49-12.75L32.49-12.75Q32.89-14.35 33.3-16.03 33.7-17.7 34.24-19.2L34.24-19.2Q34.59-20.1 35.82-20.88 37.05-21.65 38.47-22.13 39.89-22.6 40.8-22.6L40.8-22.6Q40.95-22.6 41.07-22.43 41.2-22.25 41.2-22.15L41.2-22.15Q41.2-21.75 40.84-21.65L40.84-21.65Q40.7-21.8 40.64-21.98 40.59-22.15 40.34-22.15L40.34-22.15Q39.75-22.15 38.89-21.35 38.05-20.55 37.34-19.58 36.64-18.6 36.45-18.05L36.45-18.05Q35.64-15.65 34.95-13.2 34.24-10.75 33.55-8.3L33.55-8.3Q33.95-8.9 34.87-10 35.8-11.1 36.97-12.4 38.14-13.7 39.39-14.9 40.64-16.1 41.72-16.85 42.8-17.6 43.5-17.6L43.5-17.6Q44.05-17.6 44.17-16.78 44.3-15.95 44.3-15.55L44.3-15.55Q44.3-13.25 43.39-10.5 42.5-7.75 41.05-5.28 39.59-2.8 37.89-1.25L37.89-1.25Q36.74-0.15 35.49 0.23 34.24 0.6 32.64 0.6L32.64 0.6Q32.2 0.6 31.67 0.53 31.14 0.45 30.84 0.2L30.84 0.2Q29.84 2.75 28.29 5.63 26.74 8.5 24.64 11.03 22.54 13.55 19.92 15.15 17.29 16.75 14.14 16.75ZM33.34-0.4L33.34-0.4Q34.3-0.4 35.27-1.2 36.24-2 36.8-2.65L36.8-2.65Q37.55-3.5 38.37-4.93 39.2-6.35 39.92-7.98 40.64-9.6 41.09-11.15 41.55-12.7 41.55-13.8L41.55-13.8 41.55-14Q41.55-14.2 41.5-14.38 41.45-14.55 41.25-14.55L41.25-14.55Q40.8-14.55 39.82-13.68 38.84-12.8 37.74-11.6 36.64-10.4 35.72-9.33 34.8-8.25 34.49-7.85L34.49-7.85Q34.09-7.35 33.72-6.8 33.34-6.25 33.05-5.7L33.05-5.7Q32.7-5 32.27-3.9 31.84-2.8 31.84-2L31.84-2Q31.84-1.35 32.27-0.88 32.7-0.4 33.34-0.4ZM47.14 0.2L47.14 0.2Q44.24 0.2 44.24-2.75L44.24-2.75Q44.24-4.95 45.14-7.48 46.04-10 47.49-12.33 48.94-14.65 50.54-16.1L50.54-16.1Q52.44-17.75 54.99-17.75L54.99-17.75Q55.59-17.75 56.47-17.6 57.34-17.45 57.99-17.03 58.64-16.6 58.64-15.8L58.64-15.8Q58.64-14.65 57.79-13.18 56.94-11.7 56.24-10.8L56.24-10.8Q56.49-10.75 56.87-10.65 57.24-10.55 57.24-10.25L57.24-10.25Q57.24-10.1 56.99-10.1L56.99-10.1Q56.54-10.1 56.09-10.2 55.64-10.3 55.19-10.3L55.19-10.3Q53.49-10.3 51.72-9.8 49.94-9.3 48.34-8.75L48.34-8.75Q47.84-7.55 47.47-6.1 47.09-4.65 47.09-3.35L47.09-3.35Q47.09-2.4 47.47-1.65 47.84-0.9 48.94-0.9L48.94-0.9Q50.29-0.9 51.72-1.68 53.14-2.45 54.47-3.68 55.79-4.9 56.84-6.25 57.89-7.6 58.49-8.7L58.49-8.7Q58.54-8.65 58.54-8.5L58.54-8.5Q58.54-8.05 57.99-7.28 57.44-6.5 56.87-5.75 56.29-5 56.19-4.65L56.19-4.65Q56.14-4.3 56.02-4.05 55.89-3.8 55.74-3.5L55.74-3.5Q54.89-2.65 53.32-1.78 51.74-0.9 50.07-0.35 48.39 0.2 47.14 0.2ZM49.04-10.35L49.04-10.35Q50.34-10.6 51.62-10.75 52.89-10.9 54.19-10.9L54.19-10.9Q54.59-10.9 54.99-10.9 55.39-10.9 55.79-10.85L55.79-10.85Q56.19-11.7 56.47-12.7 56.74-13.7 56.74-14.65L56.74-14.65Q56.74-15.4 56.44-16.18 56.14-16.95 55.14-16.95L55.14-16.95Q54.19-16.95 53.22-16.15 52.24-15.35 51.64-14.7L51.64-14.7Q50.84-13.75 50.22-12.63 49.59-11.5 49.04-10.35ZM57.04 0.65L57.04 0.65Q56.99 0.65 56.99 0.6L56.99 0.6Q56.99 0.4 57.17 0.2 57.34 0 57.39-0.1L57.39-0.1Q57.74-0.65 58.22-1.98 58.69-3.3 59.17-4.98 59.64-6.65 60.07-8.38 60.49-10.1 60.84-11.55 61.19-13 61.34-13.75L61.34-13.75Q61.44-14.15 61.54-14.8 61.64-15.45 61.84-16.1 62.04-16.75 62.29-16.95L62.29-16.95Q62.79-17.35 63.67-17.65 64.54-17.95 65.49-18.13 66.44-18.3 67.04-18.3L67.04-18.3Q67.14-18.3 67.29-18.2 67.44-18.1 67.49-18L67.49-18 67.49-17.85Q67.49-17.7 67.39-17.73 67.29-17.75 67.19-17.75L67.19-17.75Q66.09-17.75 65.24-16.53 64.39-15.3 63.79-13.53 63.19-11.75 62.79-10.1 62.39-8.45 62.19-7.6L62.19-7.6Q63.79-10.35 65.87-12.88 67.94-15.4 70.74-16.95L70.74-16.95Q71.09-17.15 71.54-17.38 71.99-17.6 72.34-17.6L72.34-17.6Q72.99-17.6 73.14-17.03 73.29-16.45 73.29-15.95L73.29-15.95Q73.29-15.3 72.84-14.05 72.39-12.8 71.81-11.58 71.24-10.35 70.94-9.65L70.94-9.65Q70.64-8.85 70.24-7.6 69.84-6.35 69.54-5.1 69.24-3.85 69.24-3L69.24-3Q69.24-2.65 69.34-2.2 69.44-1.75 69.89-1.75L69.89-1.75Q70.14-1.75 70.31-1.85 70.49-1.95 70.69-2.05L70.69-2.05Q71.84-2.7 72.92-3.83 73.99-4.95 74.89-6.28 75.79-7.6 76.39-8.7L76.39-8.7Q76.44-8.65 76.44-8.5L76.44-8.5Q76.44-8.2 76.09-7.63 75.74-7.05 75.29-6.4 74.84-5.75 74.47-5.25 74.09-4.75 74.09-4.65L74.09-4.65Q74.04-4.3 73.94-4.08 73.84-3.85 73.69-3.5L73.69-3.5Q73.09-2.9 71.97-2.02 70.84-1.15 69.67-0.48 68.49 0.2 67.59 0.2L67.59 0.2Q66.79 0.2 66.52-0.43 66.24-1.05 66.24-1.75L66.24-1.75Q66.24-3.1 66.79-4.98 67.34-6.85 68.09-8.72 68.84-10.6 69.34-11.9L69.34-11.9Q69.49-12.3 69.81-13.15 70.14-14 70.14-14.35L70.14-14.35Q70.14-14.6 70.06-14.9 69.99-15.2 69.59-15.2L69.59-15.2Q69.09-15.2 68.31-14.55 67.54-13.9 67.14-13.5L67.14-13.5Q64.99-11.1 63.44-8.18 61.89-5.25 60.84-2.15L60.84-2.15Q60.69-1.75 60.67-1.58 60.64-1.4 60.24-1.15L60.24-1.15Q60.09-1.05 59.32-0.6 58.54-0.15 57.82 0.25 57.09 0.65 57.04 0.65ZM75.59 0.4L75.59 0.4Q74.64 0.4 73.49 0.05 72.34-0.3 71.79-1.25L71.79-1.25 71.79-1.35Q71.79-1.6 72.41-2.13 73.04-2.65 73.74-3.18 74.44-3.7 74.64-3.95L74.64-3.95 74.99-4.05 75.09-3.85Q74.74-3.55 74.74-3.2L74.74-3.2Q74.74-2.45 75.31-1.95 75.89-1.45 76.66-1.2 77.44-0.95 78.04-0.95L78.04-0.95Q78.74-0.95 79.81-1.35 80.89-1.75 81.74-2.45 82.59-3.15 82.59-4L82.59-4Q82.59-5.3 81.79-6.25 80.99-7.2 79.94-8.05 78.89-8.9 78.09-9.85 77.29-10.8 77.29-12.05L77.29-12.05Q77.29-13.5 78.16-14.68 79.04-15.85 80.41-16.68 81.79-17.5 83.29-17.93 84.79-18.35 86.04-18.35L86.04-18.35Q86.24-18.35 86.94-18.28 87.64-18.2 88.26-18.03 88.89-17.85 88.89-17.55L88.89-17.55Q88.89-17.45 88.84-17.45L88.84-17.45 88.74-17.45 88.34-17.55Q88.49-17.2 88.49-16.7L88.49-16.7Q88.49-16.25 88.29-15.55 88.09-14.85 87.84-14.45L87.84-14.45Q87.79-14.35 87.34-13.8 86.89-13.25 86.44-12.75 85.99-12.25 85.89-12.25L85.89-12.25 85.84-12.35Q85.94-12.6 86.49-13.23 87.04-13.85 87.04-14.85L87.04-14.85Q87.04-15.9 86.09-16.57 85.14-17.25 84.14-17.25L84.14-17.25Q83.19-17.25 82.16-16.65 81.14-16.05 80.46-15.1 79.79-14.15 79.79-13.15L79.79-13.15Q79.79-12.25 80.66-11.28 81.54-10.3 82.66-9.33 83.79-8.35 84.66-7.4 85.54-6.45 85.54-5.6L85.54-5.6 85.54-5.45Q85.54-4.2 84.44-3.13 83.34-2.05 81.69-1.25 80.04-0.45 78.36-0.03 76.69 0.4 75.59 0.4ZM90.39 0.2L90.39 0.2Q87.49 0.2 87.49-2.75L87.49-2.75Q87.49-4.95 88.39-7.48 89.29-10 90.74-12.33 92.19-14.65 93.79-16.1L93.79-16.1Q95.69-17.75 98.24-17.75L98.24-17.75Q98.84-17.75 99.71-17.6 100.59-17.45 101.24-17.03 101.89-16.6 101.89-15.8L101.89-15.8Q101.89-14.65 101.04-13.18 100.19-11.7 99.49-10.8L99.49-10.8Q99.74-10.75 100.11-10.65 100.49-10.55 100.49-10.25L100.49-10.25Q100.49-10.1 100.24-10.1L100.24-10.1Q99.79-10.1 99.34-10.2 98.89-10.3 98.44-10.3L98.44-10.3Q96.74-10.3 94.96-9.8 93.19-9.3 91.59-8.75L91.59-8.75Q91.09-7.55 90.71-6.1 90.34-4.65 90.34-3.35L90.34-3.35Q90.34-2.4 90.71-1.65 91.09-0.9 92.19-0.9L92.19-0.9Q93.54-0.9 94.96-1.68 96.39-2.45 97.71-3.68 99.04-4.9 100.09-6.25 101.14-7.6 101.74-8.7L101.74-8.7Q101.79-8.65 101.79-8.5L101.79-8.5Q101.79-8.05 101.24-7.28 100.69-6.5 100.11-5.75 99.54-5 99.44-4.65L99.44-4.65Q99.39-4.3 99.26-4.05 99.14-3.8 98.99-3.5L98.99-3.5Q98.14-2.65 96.56-1.78 94.99-0.9 93.31-0.35 91.64 0.2 90.39 0.2ZM92.29-10.35L92.29-10.35Q93.59-10.6 94.86-10.75 96.14-10.9 97.44-10.9L97.44-10.9Q97.84-10.9 98.24-10.9 98.64-10.9 99.04-10.85L99.04-10.85Q99.44-11.7 99.71-12.7 99.99-13.7 99.99-14.65L99.99-14.65Q99.99-15.4 99.69-16.18 99.39-16.95 98.39-16.95L98.39-16.95Q97.44-16.95 96.46-16.15 95.49-15.35 94.89-14.7L94.89-14.7Q94.09-13.75 93.46-12.63 92.84-11.5 92.29-10.35ZM112.78 0.15L112.78 0.15Q111.98 0.15 111.68-0.25 111.38-0.65 111.38-1.4L111.38-1.4Q111.38-2.7 111.98-4.67 112.58-6.65 113.48-8.88 114.38-11.1 115.26-13.13 116.13-15.15 116.68-16.45L116.68-16.45Q116.03-16.4 115.38-16.4 114.73-16.4 114.03-16.35L114.03-16.35Q113.93-16.45 113.93-16.55L113.93-16.55Q113.93-16.85 114.33-17.25 114.73-17.65 115.26-17.93 115.78-18.2 116.03-18.2L116.03-18.2 117.43-18.2Q117.93-19.4 118.46-20.6 118.98-21.8 119.43-23L119.43-23Q119.68-23.65 120.01-24.08 120.33-24.5 120.93-24.9L120.93-24.9Q121.78-25.45 123.03-25.8 124.28-26.15 125.23-26.15L125.23-26.15Q125.33-26.15 125.46-26.05 125.58-25.95 125.63-25.9L125.63-25.9 125.63-25.7Q125.63-25.55 125.51-25.6 125.38-25.65 125.28-25.65L125.28-25.65Q124.68-25.65 123.88-24.68 123.08-23.7 122.23-22.35 121.38-21 120.76-19.78 120.13-18.55 119.88-18.1L119.88-18.1 121.88-18.1Q122.68-18.1 123.48-18.13 124.28-18.15 125.08-18.25L125.08-18.25 125.13-18.15Q125.08-18.15 125.08-18.1 125.08-18.05 125.03-18.05L125.03-18.05Q124.88-17.9 124.28-17.57 123.68-17.25 123.08-17 122.48-16.75 122.23-16.7L122.23-16.7Q121.43-16.6 120.66-16.55 119.88-16.5 119.08-16.5L119.08-16.5Q118.58-15.4 117.78-13.6 116.98-11.8 116.18-9.78 115.38-7.75 114.86-5.93 114.33-4.1 114.33-2.9L114.33-2.9Q114.33-2.6 114.43-2.2 114.53-1.8 114.93-1.8L114.93-1.8Q115.28-1.8 115.63-2.05L115.63-2.05Q116.73-2.7 117.81-3.83 118.88-4.95 119.81-6.28 120.73-7.6 121.28-8.7L121.28-8.7Q121.38-8.65 121.38-8.5L121.38-8.5Q121.38-8.2 121.03-7.63 120.68-7.05 120.23-6.4 119.78-5.75 119.41-5.25 119.03-4.75 119.03-4.65L119.03-4.65Q118.98-4.25 118.86-4.08 118.73-3.9 118.58-3.5L118.58-3.5Q117.93-2.9 116.93-2.02 115.93-1.15 114.83-0.5 113.73 0.15 112.78 0.15ZM119.43 0.65L119.43 0.65Q119.33 0.65 119.33 0.6L119.33 0.6Q119.33 0.4 119.5 0.23 119.68 0.05 119.78-0.1L119.78-0.1Q120.23-0.85 120.8-2.68 121.38-4.5 121.95-6.7 122.53-8.9 123-10.83 123.48-12.75 123.68-13.75L123.68-13.75Q123.78-14.15 123.9-14.8 124.03-15.45 124.23-16.1 124.43-16.75 124.68-16.95L124.68-16.95Q125.13-17.35 126.03-17.65 126.93-17.95 127.85-18.13 128.78-18.3 129.38-18.3L129.38-18.3Q129.48-18.3 129.63-18.2 129.78-18.1 129.83-18L129.83-18 129.88-17.85Q129.83-17.7 129.73-17.73 129.63-17.75 129.53-17.75L129.53-17.75Q128.58-17.75 127.78-16.68 126.98-15.6 126.38-14.05 125.78-12.5 125.35-11.08 124.93-9.65 124.78-8.95L124.78-8.95Q125.28-10.1 126.1-11.58 126.93-13.05 128.03-14.43 129.13-15.8 130.43-16.73 131.73-17.65 133.18-17.65L133.18-17.65Q133.38-17.65 133.85-17.57 134.33-17.5 134.75-17.32 135.18-17.15 135.18-16.9L135.18-16.9 135.13-16.85 135.08-16.85 134.78-16.95Q134.93-16.6 134.98-16.25 135.03-15.9 135.03-15.55L135.03-15.55Q135.03-15.25 134.85-14.25 134.68-13.25 134.4-12.38 134.13-11.5 133.83-11.5L133.83-11.5Q133.63-11.5 133.63-11.65L133.63-11.65Q133.63-11.9 133.8-12.48 133.98-13.05 133.98-13.55L133.98-13.55Q133.98-14.45 133.53-15 133.08-15.55 132.18-15.55L132.18-15.55Q130.68-15.55 129.28-14.28 127.88-13 126.73-11.13 125.58-9.25 124.78-7.35 123.98-5.45 123.68-4.25L123.68-4.25Q123.48-3.6 123.33-2.58 123.18-1.55 122.58-1.15L122.58-1.15Q122.43-1.1 121.65-0.65 120.88-0.2 120.15 0.23 119.43 0.65 119.43 0.65ZM134.47 0.1L134.47 0.1Q133.68 0.1 133.45-0.53 133.22-1.15 133.22-1.8L133.22-1.8Q133.22-4.15 134.13-6.85 135.03-9.55 136.47-12.03 137.93-14.5 139.63-16.1L139.63-16.1Q141.43-17.75 143.88-17.75L143.88-17.75Q144.88-17.75 145.85-17.53 146.83-17.3 147.78-16.9L147.78-16.9Q148.63-17.5 149.63-17.95 150.63-18.4 151.68-18.4L151.68-18.4Q151.93-18.4 152.08-18.1L152.08-18.1 152.08-17.95Q152.08-17.8 151.95-17.82 151.83-17.85 151.72-17.85L151.72-17.85Q150.93-17.85 149.97-16.63 149.03-15.4 148.08-13.5 147.13-11.6 146.35-9.5 145.58-7.4 145.1-5.65 144.63-3.9 144.63-3L144.63-3Q144.63-2.65 144.75-2.2 144.88-1.75 145.33-1.75L145.33-1.75Q145.58-1.75 145.75-1.85 145.93-1.95 146.13-2.05L146.13-2.05Q147.22-2.7 148.3-3.83 149.38-4.95 150.3-6.28 151.22-7.6 151.83-8.7L151.83-8.7Q151.88-8.65 151.88-8.5L151.88-8.5Q151.88-8.2 151.53-7.63 151.18-7.05 150.72-6.4 150.28-5.75 149.9-5.25 149.53-4.75 149.53-4.65L149.53-4.65Q149.47-4.3 149.38-4.08 149.28-3.85 149.08-3.5L149.08-3.5Q148.43-2.85 147.43-2 146.43-1.15 145.35-0.53 144.28 0.1 143.28 0.1L143.28 0.1Q141.72 0.1 141.72-1.55L141.72-1.55Q141.72-2.55 142.15-3.88 142.58-5.2 143.15-6.53 143.72-7.85 144.18-8.75L144.18-8.75Q144.18-8.8 144.18-8.9 144.18-9 144.13-9L144.13-9Q144.08-9 143.97-8.9L143.97-8.9Q143.38-8.1 142.22-6.6 141.08-5.1 139.7-3.58 138.33-2.05 136.93-0.98 135.53 0.1 134.47 0.1ZM136.68-2.05L136.68-2.05Q137.22-2.05 138.05-2.78 138.88-3.5 139.8-4.53 140.72-5.55 141.45-6.5 142.18-7.45 142.47-7.9L142.47-7.9Q143.08-8.8 143.85-10.15 144.63-11.5 145.2-12.95 145.78-14.4 145.78-15.4L145.78-15.4Q145.78-16.95 144.22-16.95L144.22-16.95Q143.33-16.95 142.33-16.15 141.33-15.35 140.72-14.7L140.72-14.7Q140.08-13.9 139.25-12.4 138.43-10.9 137.72-9.15 137.03-7.4 136.55-5.8 136.08-4.2 136.08-3.15L136.08-3.15Q136.08-2.85 136.18-2.45 136.28-2.05 136.68-2.05ZM151.32 0L151.32 0Q150.77 0 150.4-0.5 150.02-1 149.85-1.65 149.67-2.3 149.67-2.75L149.67-2.75Q149.67-4.95 150.6-7.48 151.52-10 152.97-12.33 154.42-14.65 155.97-16.1L155.97-16.1Q156.87-16.95 158.05-17.35 159.22-17.75 160.42-17.75L160.42-17.75Q161.22-17.75 162.15-17.55 163.07-17.35 163.72-16.85L163.72-16.85Q163.72-16.8 163.75-16.78 163.77-16.75 163.77-16.7L163.77-16.7Q163.77-16.6 163.72-16.6L163.72-16.6 163.67-16.6 163.32-16.7Q163.47-16.25 163.47-15.8L163.47-15.8Q163.47-15.35 163.22-14.48 162.97-13.6 162.62-12.8 162.27-12 161.87-11.75L161.87-11.75Q161.87-11.75 161.77-11.75L161.77-11.75Q161.62-11.75 161.62-12L161.62-12Q161.62-12.1 161.72-12.2 161.82-12.3 161.87-12.4L161.87-12.4Q162.12-12.95 162.25-13.5 162.37-14.05 162.37-14.6L162.37-14.6Q162.37-15.45 161.97-16.2 161.57-16.95 160.57-16.95L160.57-16.95Q159.67-16.95 158.67-16.15 157.67-15.35 157.07-14.7L157.07-14.7Q156.07-13.55 155.05-11.58 154.02-9.6 153.32-7.5 152.62-5.4 152.62-3.85L152.62-3.85Q152.62-3.15 152.9-2.53 153.17-1.9 154.02-1.9L154.02-1.9Q155.27-1.9 156.67-2.78 158.07-3.65 159.47-4.93 160.87-6.2 162.05-7.48 163.22-8.75 164-9.63 164.77-10.5 164.87-10.5L164.87-10.5Q165.02-10.5 165.02-10.25L165.02-10.25Q165.02-10.15 165-10.05 164.97-9.95 164.92-9.85L164.92-9.85Q163.67-8.2 162.25-6.48 160.82-4.75 159.15-3.28 157.47-1.8 155.52-0.9 153.57 0 151.32 0ZM160.72 0.65L160.72 0.65Q160.67 0.65 160.67 0.6L160.67 0.6Q160.67 0.4 160.85 0.23 161.02 0.05 161.07-0.1L161.07-0.1Q161.47-0.75 161.92-1.83 162.37-2.9 162.77-4.05 163.17-5.2 163.42-5.9L163.42-5.9Q164.47-8.85 165.47-11.88 166.47-14.9 167.57-17.85L167.57-17.85Q168.22-19.6 169.1-21.8 169.97-24 171.15-26.25 172.32-28.5 173.82-30.38 175.32-32.25 177.17-33.4 179.02-34.55 181.32-34.55L181.32-34.55Q181.87-34.55 182.55-34.35 183.22-34.15 183.52-33.65L183.52-33.65Q183.72-33.45 183.72-33.2L183.72-33.2Q183.72-33 183.57-33L183.57-33Q183.22-33.15 182.92-33.55 182.62-33.95 182.02-33.95L182.02-33.95Q181.02-33.95 179.82-33.18 178.62-32.4 177.6-31.35 176.57-30.3 175.97-29.5L175.97-29.5Q174.27-27.2 172.75-24.15 171.22-21.1 169.95-17.9 168.67-14.7 167.67-11.95L167.67-11.95Q168.17-12.65 169.05-13.58 169.92-14.5 170.97-15.4 172.02-16.3 173.1-16.9 174.17-17.5 175.02-17.5L175.02-17.5Q175.97-17.5 176.57-16.9 177.17-16.3 177.17-15.35L177.17-15.35Q177.17-13.8 176.22-12.73 175.27-11.65 173.8-11 172.32-10.35 170.75-10.05 169.17-9.75 167.97-9.7L167.97-9.7Q168.32-8.6 169.02-7.08 169.72-5.55 170.75-4.08 171.77-2.6 172.97-1.63 174.17-0.65 175.47-0.65L175.47-0.65Q177.02-0.65 177.85-1.6 178.67-2.55 179.47-3.65L179.47-3.65Q179.52-3.65 179.52-3.5L179.52-3.5Q179.52-3.3 179.42-3.1 179.32-2.9 179.22-2.75L179.22-2.75Q179.02-2.4 178.85-2.02 178.67-1.65 178.42-1.3L178.42-1.3Q177.77-0.45 176.8-0.05 175.82 0.35 174.77 0.35L174.77 0.35Q172.52 0.35 170.85-0.88 169.17-2.1 168.05-4 166.92-5.9 166.22-7.8L166.22-7.8Q165.87-6.7 165.52-5.58 165.17-4.45 164.82-3.3L164.82-3.3Q164.77-3.1 164.7-2.85 164.62-2.6 164.57-2.35L164.57-2.35Q164.52-2.25 164.52-2.15L164.52-2.15Q164.47-1.75 164.4-1.58 164.32-1.4 163.92-1.15L163.92-1.15Q163.82-1.1 163.02-0.65 162.22-0.2 161.5 0.23 160.77 0.65 160.72 0.65ZM168.87-10.6L168.87-10.6Q170.22-10.6 171.47-11.13 172.72-11.65 173.52-12.68 174.32-13.7 174.32-15.15L174.32-15.15Q174.32-15.4 174.25-15.73 174.17-16.05 173.77-16.05L173.77-16.05Q172.57-16.05 171.4-15.05 170.22-14.05 169.17-12.8 168.12-11.55 167.37-10.75L167.37-10.75Q168.07-10.6 168.87-10.6ZM180.82 0.2L180.82 0.2Q177.92 0.2 177.92-2.75L177.92-2.75Q177.92-4.95 178.82-7.48 179.72-10 181.17-12.33 182.62-14.65 184.22-16.1L184.22-16.1Q186.12-17.75 188.67-17.75L188.67-17.75Q189.27-17.75 190.14-17.6 191.02-17.45 191.67-17.03 192.32-16.6 192.32-15.8L192.32-15.8Q192.32-14.65 191.47-13.18 190.62-11.7 189.92-10.8L189.92-10.8Q190.17-10.75 190.54-10.65 190.92-10.55 190.92-10.25L190.92-10.25Q190.92-10.1 190.67-10.1L190.67-10.1Q190.22-10.1 189.77-10.2 189.32-10.3 188.87-10.3L188.87-10.3Q187.17-10.3 185.39-9.8 183.62-9.3 182.02-8.75L182.02-8.75Q181.52-7.55 181.14-6.1 180.77-4.65 180.77-3.35L180.77-3.35Q180.77-2.4 181.14-1.65 181.52-0.9 182.62-0.9L182.62-0.9Q183.97-0.9 185.39-1.68 186.82-2.45 188.14-3.68 189.47-4.9 190.52-6.25 191.57-7.6 192.17-8.7L192.17-8.7Q192.22-8.65 192.22-8.5L192.22-8.5Q192.22-8.05 191.67-7.28 191.12-6.5 190.54-5.75 189.97-5 189.87-4.65L189.87-4.65Q189.82-4.3 189.69-4.05 189.57-3.8 189.42-3.5L189.42-3.5Q188.57-2.65 186.99-1.78 185.42-0.9 183.74-0.35 182.07 0.2 180.82 0.2ZM182.72-10.35L182.72-10.35Q184.02-10.6 185.29-10.75 186.57-10.9 187.87-10.9L187.87-10.9Q188.27-10.9 188.67-10.9 189.07-10.9 189.47-10.85L189.47-10.85Q189.87-11.7 190.14-12.7 190.42-13.7 190.42-14.65L190.42-14.65Q190.42-15.4 190.12-16.18 189.82-16.95 188.82-16.95L188.82-16.95Q187.87-16.95 186.89-16.15 185.92-15.35 185.32-14.7L185.32-14.7Q184.52-13.75 183.89-12.63 183.27-11.5 182.72-10.35ZM190.77 0.65L190.77 0.65Q190.67 0.65 190.67 0.6L190.67 0.6Q190.67 0.4 190.84 0.23 191.02 0.05 191.12-0.1L191.12-0.1Q191.57-0.85 192.14-2.68 192.72-4.5 193.29-6.7 193.87-8.9 194.34-10.83 194.82-12.75 195.02-13.75L195.02-13.75Q195.12-14.15 195.24-14.8 195.37-15.45 195.57-16.1 195.77-16.75 196.02-16.95L196.02-16.95Q196.47-17.35 197.37-17.65 198.27-17.95 199.19-18.13 200.12-18.3 200.72-18.3L200.72-18.3Q200.82-18.3 200.97-18.2 201.12-18.1 201.17-18L201.17-18 201.22-17.85Q201.17-17.7 201.07-17.73 200.97-17.75 200.87-17.75L200.87-17.75Q199.92-17.75 199.12-16.68 198.32-15.6 197.72-14.05 197.12-12.5 196.69-11.08 196.27-9.65 196.12-8.95L196.12-8.95Q196.62-10.1 197.44-11.58 198.27-13.05 199.37-14.43 200.47-15.8 201.77-16.73 203.07-17.65 204.52-17.65L204.52-17.65Q204.72-17.65 205.19-17.57 205.67-17.5 206.09-17.32 206.52-17.15 206.52-16.9L206.52-16.9 206.47-16.85 206.42-16.85 206.12-16.95Q206.27-16.6 206.32-16.25 206.37-15.9 206.37-15.55L206.37-15.55Q206.37-15.25 206.19-14.25 206.02-13.25 205.74-12.38 205.47-11.5 205.17-11.5L205.17-11.5Q204.97-11.5 204.97-11.65L204.97-11.65Q204.97-11.9 205.14-12.48 205.32-13.05 205.32-13.55L205.32-13.55Q205.32-14.45 204.87-15 204.42-15.55 203.52-15.55L203.52-15.55Q202.02-15.55 200.62-14.28 199.22-13 198.07-11.13 196.92-9.25 196.12-7.35 195.32-5.45 195.02-4.25L195.02-4.25Q194.82-3.6 194.67-2.58 194.52-1.55 193.92-1.15L193.92-1.15Q193.77-1.1 192.99-0.65 192.22-0.2 191.49 0.23 190.77 0.65 190.77 0.65Z" opacity="1" transform="matrix(1,0,0,1,0,0)" fill="#303c6c" class="wordmark-text-0" data-fill-palette-color="quaternary" id="text-0"></path></svg></g></svg></g></svg></g></svg></g><g></g></svg></g><defs></defs></svg><rect width="395.52" height="123.06150957757853" fill="none" stroke="none" visibility="hidden"></rect></g></svg></g></svg>